<svg xmlns="http://www.w3.org/2000/svg" xmlns:xlink="http://www.w3.org/1999/xlink" width="200" zoomAndPan="magnify" viewBox="0 0 150 149.999998" height="200" preserveAspectRatio="xMidYMid meet" version="1.0"><defs><clipPath id="1f9c5951a3"><path d="M 4.289062 6.054688 L 146 6.054688 L 146 147.804688 L 4.289062 147.804688 Z M 4.289062 6.054688 " clip-rule="nonzero"/></clipPath></defs><path fill="#7adaa5" d="M 74.996094 7.632812 C 36.820312 7.632812 5.871094 38.582031 5.871094 76.757812 C 5.871094 114.9375 36.820312 145.886719 74.996094 145.886719 C 113.171875 145.886719 144.121094 114.9375 144.121094 76.757812 C 144.121094 38.582031 113.171875 7.632812 74.996094 7.632812 Z M 112.765625 114.53125 C 102.675781 124.617188 89.261719 130.175781 74.996094 130.175781 C 60.726562 130.175781 47.3125 124.617188 37.226562 114.53125 C 27.136719 104.441406 21.578125 91.027344 21.578125 76.757812 C 21.578125 62.492188 27.136719 49.078125 37.226562 38.988281 C 47.3125 28.902344 60.726562 23.34375 74.996094 23.34375 C 89.261719 23.34375 102.675781 28.902344 112.765625 38.988281 C 122.855469 49.078125 128.410156 62.492188 128.410156 76.757812 C 128.410156 91.027344 122.855469 104.441406 112.765625 114.53125 Z M 112.765625 114.53125 " fill-opacity="1" fill-rule="nonzero"/><g clip-path="url(#1f9c5951a3)"><path fill="#7adaa5" d="M 74.996094 147.464844 C 36.007812 147.464844 4.289062 115.746094 4.289062 76.757812 C 4.289062 37.773438 36.007812 6.054688 74.996094 6.054688 C 113.980469 6.054688 145.699219 37.773438 145.699219 76.757812 C 145.699219 115.746094 113.980469 147.464844 74.996094 147.464844 Z M 74.996094 9.214844 C 37.75 9.214844 7.449219 39.515625 7.449219 76.757812 C 7.449219 114.003906 37.75 144.304688 74.996094 144.304688 C 112.242188 144.304688 142.539062 114.003906 142.539062 76.757812 C 142.539062 39.515625 112.242188 9.214844 74.996094 9.214844 Z M 74.996094 131.753906 C 60.304688 131.753906 46.496094 126.035156 36.109375 115.648438 C 25.71875 105.257812 20 91.449219 20 76.757812 C 20 62.070312 25.71875 48.261719 36.109375 37.871094 C 46.496094 27.484375 60.304688 21.765625 74.996094 21.765625 C 89.6875 21.765625 103.496094 27.484375 113.882812 37.871094 C 124.273438 48.261719 129.992188 62.070312 129.992188 76.757812 C 129.992188 91.449219 124.273438 105.257812 113.882812 115.648438 C 103.496094 126.035156 89.6875 131.753906 74.996094 131.753906 Z M 74.996094 24.921875 C 61.152344 24.921875 48.132812 30.316406 38.34375 40.109375 C 28.550781 49.894531 23.160156 62.914062 23.160156 76.757812 C 23.160156 90.605469 28.550781 103.625 38.34375 113.410156 C 48.136719 123.203125 61.152344 128.589844 74.996094 128.589844 C 88.839844 128.589844 101.859375 123.199219 111.648438 113.410156 C 121.441406 103.621094 126.832031 90.605469 126.832031 76.757812 C 126.832031 62.914062 121.441406 49.894531 111.648438 40.109375 C 101.859375 30.316406 88.839844 24.921875 74.996094 24.921875 Z M 74.996094 24.921875 " fill-opacity="1" fill-rule="nonzero"/></g></svg>