<svg xmlns="http://www.w3.org/2000/svg" xmlns:xlink="http://www.w3.org/1999/xlink" width="200" zoomAndPan="magnify" viewBox="0 0 150 149.999998" height="200" preserveAspectRatio="xMidYMid meet" version="1.0"><defs><clipPath id="dc7f84a57d"><path d="M 3 3 L 147 3 L 147 147.203125 L 3 147.203125 Z M 3 3 " clip-rule="nonzero"/></clipPath></defs><g clip-path="url(#dc7f84a57d)"><path fill="#239ba7" d="M 95.292969 75.738281 L 142.617188 28.414062 C 148.230469 22.804688 148.230469 13.707031 142.617188 8.09375 C 137.003906 2.488281 127.917969 2.488281 122.304688 8.09375 L 74.980469 55.417969 L 27.65625 8.101562 C 22.050781 2.488281 12.953125 2.488281 7.339844 8.101562 C 1.730469 13.707031 1.730469 22.804688 7.339844 28.417969 L 54.664062 75.738281 L 7.222656 123.175781 C 1.617188 128.785156 1.617188 137.882812 7.222656 143.488281 C 10.027344 146.292969 13.707031 147.699219 17.378906 147.699219 C 21.054688 147.699219 24.734375 146.292969 27.542969 143.488281 L 74.976562 96.054688 L 122.296875 143.375 C 125.101562 146.179688 128.777344 147.582031 132.453125 147.582031 C 136.125 147.582031 139.800781 146.179688 142.609375 143.375 C 148.21875 137.765625 148.21875 128.667969 142.609375 123.0625 Z M 95.292969 75.738281 " fill-opacity="1" fill-rule="nonzero"/></g></svg>